# AST/ASF file generated using VICON BodyLanguage
# -----------------------------------------------
:version 1.10
:name VICON
:units
  mass 1.0
  length 0.45
  angle deg
:documentation
   .ast/.asf automatically generated from VICON data using
   VICON BodyBuilder and BodyLanguage model FoxedUp or BRILLIANT.MOD
:root
   order TX TY TZ RX RY RZ
   axis XYZ
   position 0 0 0  
   orientation 0 0 0 
:bonedata
  begin
     id 1 
     name lhipjoint
     direction 0.630082 -0.636569 0.44472 
     length 2.82754 
     axis 0 0 0  XYZ
  end
  begin
     id 2 
     name lfemur
     direction 0.34202 -0.939693 0  
     length 7.26371  
     axis 0 0 20  XYZ
    dof rx ry rz
    limits (-160.0 20.0)
           (-70.0 70.0)
           (-60.0 70.0)
  end
  begin
     id 3 
     name ltibia
     direction 0.34202 -0.939693 0   
     length 7.88616   
     axis 0 0 20   XYZ
    dof rx
    limits (-10.0 170.0)
  end
  begin
     id 4 
     name lfoot
     direction 0.0603448 -0.165796 0.984312   
     length 1.77861   
     axis -90 7.62852e-016 20   XYZ
    dof rx rz
    limits (-45.0 90.0)
           (-70.0 20.0)
  end
  begin
     id 5 
     name ltoes
     direction 1.53577e-011 -4.21876e-011 1   
     length 0.902235   
     axis -90 7.62852e-016 20   XYZ
    dof rx
    limits (-90.0 20.0)
  end
  begin
     id 6 
     name rhipjoint
     direction -0.656778 -0.61817 0.431866   
     length 2.9117  
     axis 0 0 0  XYZ 
  end
  begin
     id 7 
     name rfemur
     direction -0.34202 -0.939693 0   
     length 6.81603   
     axis 0 0 -20   XYZ
    dof rx ry rz
    limits (-160.0 20.0)
           (-70.0 70.0)
           (-70.0 60.0)
  end
  begin
     id 8 
     name rtibia
     direction -0.34202 -0.939693 0   
     length 8.05997   
     axis 0 0 -20   XYZ
    dof rx
    limits (-10.0 170.0)
 end
 begin
     id 9 
     name rfoot
     direction -0.0862404 -0.236944 0.967688   
     length 1.84899  
     axis -90 -7.62852e-016 -20   XYZ
    dof rx rz
    limits (-45.0 90.0)
           (-20.0 70.0)
  end
  begin
     id 10 
     name rtoes
     direction -1.53561e-011 -4.21798e-011 1   
     length 0.931579   
     axis -90 -7.62852e-016 -20   XYZ
    dof rx
    limits (-90.0 20.0)
  end
  begin
     id 11 
     name lowerback
     direction -0.0110203 0.991769 -0.127564   
     length 2.05686   
     axis 0 0 0   XYZ
    dof rx ry rz
    limits (-20.0 45.0)
           (-30.0 30.0)
           (-30.0 30.0)
  end
  begin
     id 12 
     name upperback
     direction 0.0109719 0.99993 -0.00432479   
     length 2.06234   
     axis 0 0 0   XYZ
    dof rx ry rz
    limits (-20.0 45.0)
           (-30.0 30.0)
           (-30.0 30.0)
  end
  begin
     id 13 
     name thorax
     direction 0.0173308 0.998351 0.0547306   
     length 2.09856   
     axis 0 0 0   XYZ
    dof rx ry rz
    limits (-20.0 45.0)
           (-30.0 30.0)
           (-30.0 30.0)
  end
  begin
     id 14 
     name lowerneck
     direction -0.0311736 0.989033 0.144366   
     length 1.98151   
     axis 0 0 0   XYZ
    dof rx ry rz
    limits (-20.0 45.0)
           (-30.0 30.0)
           (-30.0 30.0)
  end
  begin
     id 15 
     name upperneck
     direction 0.0421057 0.975772 -0.214698   
     length 2.01457   
     axis 0 0 0   XYZ
    dof rx ry rz
    limits (-20.0 45.0)
           (-30.0 30.0)
           (-30.0 30.0)
  end
  begin
     id 16
     name head
     direction 0.0136911 0.995958 -0.0887718  
     length 2.03562  
     axis 0 0 0   XYZ
    dof rx ry rz
    limits (-20.0 45.0)
           (-30.0 30.0)
           (-30.0 30.0)
  end
  begin
     id 17 
     name lclavicle
     direction 0.915335 0.396201 0.0720134  
     length 4.16217  
     axis 0 0 0   XYZ
    dof ry rz
    limits (-20.0 10.0)
           (0.0 20.0)
  end
  begin
     id 18 
     name lhumerus
     direction 1 -4.48965e-011 6.383e-018   
     length 4.93042   
     axis -180 -30 -90   XYZ
    dof rx ry rz
    limits (-60.0 90.0)
           (-90.0 90.0)
           (-90.0 90.0)
  end
  begin
     id 19
     name lradius
     direction 1 -4.48972e-011 8.8689e-027   
     length 3.68177   
     axis -180 -30 -90   XYZ
    dof rx
    limits (-10.0 170.0)
  end
  begin
     id 20
     name lwrist
     direction 1 -4.48953e-011 1.17971e-026   
     length 1.84089   
     axis -7.69454e-015 90 90   XYZ
    dof ry
    limits (-180.0 0.0)
 end
  begin
     id 21 
     name lhand
     direction 1 -4.49027e-011 2.35802e-026   
     length 0.721479   
     axis -1.50533e-014 90 90   XYZ
    dof rx rz
    limits (-90.0 90.0)
           (-45.0 45.0)
  end
  begin
     id 22 
     name lfingers
     direction 1 -4.48915e-011 4.72027e-026   
     length 0.581675   
     axis -3.01059e-014 90 90   XYZ
    dof rx
    limits (0.0 90.0)
  end
  begin
     id 23
     name lthumb
     direction 0.707107 -6.34948e-011 0.707107   
     length 0.835172   
     axis -90 45 -5.12164e-014   XYZ
    dof rx rz
    limits (-45.0 45.0)
           (-45.0 45.0)
  end
  begin
     id 24 
     name rclavicle
     direction -0.882781 0.469197 0.0234974   
     length 3.95647  
     axis 0 0 0   XYZ 
    dof ry rz
    limits (-10.0 20.0)
           (-20.0 0.0)
  end
  begin
     id 25 
     name rhumerus
     direction -1 -4.48965e-011 -1.54906e-018  
     length 5.07905   
     axis -180 30 90   XYZ
    dof rx ry rz
    limits (-90.0 60.0)
           (-90.0 90.0)
           (-90.0 90.0)
  end
  begin
     id 26 
     name rradius
     direction -1 -4.48972e-011 5.47489e-027   
     length 3.54394   
     axis -180 30 90   XYZ
    dof rx
    limits (-10.0 170.0)
  end
  begin
     id 27 
     name rwrist
     direction -1 -4.48955e-011 1.17969e-026   
     length 1.77197   
     axis -7.69454e-015 -90 -90   XYZ
    dof ry
    limits (-180.0 0.0)
  end
  begin
     id 28
     name rhand
     direction -1 -4.48982e-011 2.35888e-026   
     length 0.681156   
     axis -1.50533e-014 -90 -90   XYZ
    dof rx rz
    limits (-90.0 90.0)
           (-45.0 45.0)
  end
  begin
     id 29
     name rfingers
     direction -1 -4.48955e-011 4.71877e-026   
     length 0.549165   
     axis -3.01059e-014 -90 -90   XYZ
    dof rx
    limits (0.0 90.0)
  end
  begin
     id 30
     name rthumb
     direction -0.707107 -6.3491e-011 0.707107   
     length 0.788495   
     axis -90 -45 5.12164e-014   XYZ
    dof rx rz
    limits (-45.0 45.0)
           (-45.0 45.0)
  end
:hierarchy
  begin
    root lhipjoint rhipjoint lowerback
    lhipjoint lfemur
    lfemur ltibia
    ltibia lfoot
    lfoot ltoes
    rhipjoint rfemur
    rfemur rtibia
    rtibia rfoot
    rfoot rtoes
    lowerback upperback
    upperback thorax
    thorax lowerneck lclavicle rclavicle
    lowerneck upperneck
    upperneck head
    lclavicle lhumerus
    lhumerus lradius
    lradius lwrist
    lwrist lhand lthumb
    lhand lfingers
    rclavicle rhumerus
    rhumerus rradius
    rradius rwrist
    rwrist rhand rthumb
    rhand rfingers
  end

#!OML:ASF H:\Bending\Project 1\Capture day 1\Session 1\Subject.ASF
:FULLY-SPECIFIED
:DEGREES
225
root -9.49821 17.9959 -16.3394 248.303 88.7345 244.002
lowerback 2.4206 0.290205 1.41486
upperback -2.90081 0.57969 2.16886
thorax -4.35878 0.299203 1.40871
lowerneck -27.6661 -3.39098 -5.71739
upperneck 28.8798 -3.25066 3.28393
head 14.8064 -1.44748 1.6796
rclavicle 3.13086e-015 2.54444e-014
rhumerus 0.533273 14.8356 -85.1666
rradius 70.565
rwrist -0.669984
rhand -31.512 -38.619
rfingers 7.12502
rthumb -4.77757 -68.5451
lclavicle 3.13086e-015 2.54444e-014
lhumerus 1.01915 -27.6922 89.0165
lradius 68.6497
lwrist 50.7584
lhand -36.9465 14.7347
lfingers 7.12502
lthumb -10.023 44.4761
rfemur 4.98845 -1.04863 15.2153
rtibia -3.33958e-014
rfoot -9.94933 -17.9118
rtoes 7.03381
lfemur -8.42545 -11.7727 -11.3957
ltibia 22.2428
lfoot -19.847 8.28774
ltoes -18.7261
226
root -9.50117 17.9972 -16.3494 252.749 88.7739 248.377
lowerback 2.53671 0.236759 1.39772
upperback -2.85561 0.509718 2.19557
thorax -4.37713 0.264962 1.44985
lowerneck -27.8564 -3.19195 -5.36025
upperneck 28.9932 -2.93697 2.78593
head 14.8615 -1.34908 1.47723
rclavicle 3.64024e-015 -1.19271e-014
rhumerus 1.13208 15.2914 -84.9242
rradius 69.9987
rwrist -0.93215
rhand -31.5691 -38.1756
rfingers 7.12502
rthumb -4.83262 -68.1005
lclavicle 3.64024e-015 -1.19271e-014
lhumerus 1.81802 -27.6434 88.4992
lradius 67.7874
lwrist 50.4013
lhand -36.8411 14.7944
lfingers 7.12502
lthumb -9.92139 44.5406
rfemur 4.8617 -0.95235 15.1897
rtibia -1.11319e-014
rfoot -9.82291 -17.9845
rtoes 6.35355
lfemur -8.49584 -11.8628 -11.4224
ltibia 22.281
lfoot -19.9559 8.3977
ltoes -18.4168
227
root -9.50454 17.9984 -16.3599 258.692 88.8062 254.233
lowerback 2.66308 0.219764 1.40113
upperback -2.81221 0.490253 2.22746
thorax -4.40381 0.255377 1.48175
lowerneck -28.0058 -3.03889 -5.13222
upperneck 29.0482 -2.67379 2.4016
head 14.8926 -1.27037 1.33277
rclavicle -2.02512e-015 -2.78299e-014
rhumerus 1.67767 15.6498 -84.608
rradius 69.5878
rwrist -1.09722
rhand -31.3488 -37.5316
rfingers 7.12502
rthumb -4.61994 -67.4612
lclavicle -2.02512e-015 -2.78299e-014
lhumerus 2.66793 -27.7266 87.9166
lradius 66.9037
lwrist 49.9182
lhand -36.7264 14.8935
lfingers 7.12502
lthumb -9.8107 44.6449
rfemur 4.71091 -0.832569 15.1728
rtibia -3.18055e-015
rfoot -9.66234 -18.0646
rtoes 5.54948
lfemur -8.58835 -11.9047 -11.4406
ltibia 22.3318
lfoot -20.0445 8.49948
ltoes -18.2463
228
root -9.50854 17.9996 -16.3703 265.612 88.831 261.046
lowerback 2.78787 0.238923 1.42942
upperback -2.76772 0.519658 2.24548
thorax -4.42891 0.269027 1.4822
lowerneck -28.1014 -2.93548 -5.01188
upperneck 29.046 -2.48101 2.14189
head 14.8961 -1.21522 1.24343
rclavicle -3.4601e-015 -1.11319e-014
rhumerus 2.22326 15.8502 -84.2427
rradius 69.2404
rwrist -1.09295
rhand -30.592 -36.7015
rfingers 7.12502
rthumb -3.88913 -66.6457
lclavicle -3.4601e-015 -1.11319e-014
lhumerus 3.60313 -27.9608 87.26
lradius 65.966
lwrist 49.3938
lhand -36.6138 15.0209
lfingers 7.12502
lthumb -9.70204 44.7774
rfemur 4.53973 -0.699686 15.1544
rtibia -4.77083e-015
rfoot -9.49488 -18.1346
rtoes 4.79519
lfemur -8.70488 -11.8548 -11.4549
ltibia 22.3833
lfoot -20.0906 8.54176
ltoes -18.1376
229
root -9.51304 18.0012 -16.3806 272.961 88.8517 268.278
lowerback 2.9039 0.280714 1.47817
upperback -2.71754 0.578417 2.23536
thorax -4.443 0.295961 1.44001
lowerneck -28.1428 -2.86191 -4.93037
upperneck 29.007 -2.34938 1.97254
head 14.8772 -1.1766 1.18565
rclavicle -3.71479e-015 -1.82882e-014
rhumerus 2.83888 15.9066 -83.8594
rradius 68.8258
rwrist -0.914231
rhand -29.2399 -35.799
rfingers 7.12502
rthumb -2.58335 -65.7631
lclavicle -3.71479e-015 -1.82882e-014
lhumerus 4.64019 -28.3176 86.5226
lradius 64.9563
lwrist 48.9136
lhand -36.4862 15.1716
lfingers 7.12502
lthumb -9.57892 44.9338
rfemur 4.36084 -0.564017 15.1211
rtibia 6.36111e-015
rfoot -9.35217 -18.18
rtoes 4.25436
lfemur -8.83227 -11.7129 -11.4759
ltibia 22.4224
lfoot -20.0968 8.5037
ltoes -17.9327
230
root -9.51766 18.003 -16.3909 280.367 88.8713 275.569
lowerback 3.01127 0.326758 1.5381
upperback -2.65789 0.641065 2.19334
thorax -4.44167 0.323706 1.35816
lowerneck -28.1401 -2.78963 -4.81476
upperneck 28.96 -2.25109 1.84016
head 14.8473 -1.14229 1.13098
rclavicle -3.60297e-016 -2.06736e-014
rhumerus 3.58504 15.8859 -83.4817
rradius 68.2179
rwrist -0.621961
rhand -27.4953 -34.9955
rfingers 7.12502
rthumb -0.898481 -64.9734
lclavicle -3.60297e-016 -2.06736e-014
lhumerus 5.7695 -28.7319 85.7137
lradius 63.8852
lwrist 48.5374
lhand -36.3118 15.3453
lfingers 7.12502
lthumb -9.41069 45.1152
rfemur 4.19042 -0.433396 15.0641
rtibia -3.97569e-014
rfoot -9.25864 -18.1947
rtoes 4.01892
lfemur -8.94889 -11.5205 -11.5139
ltibia 22.4385
lfoot -20.0845 8.40415
ltoes -17.4864
231
root -9.52193 18.005 -16.4015 287.604 88.8889 282.705
lowerback 3.11576 0.362998 1.59912
upperback -2.58877 0.688897 2.12724
thorax -4.42808 0.343496 1.2517
lowerneck -28.1077 -2.69892 -4.62912
upperneck 28.9287 -2.15746 1.70201
head 14.8174 -1.10248 1.0617
rclavicle -1.90088e-015 -2.94201e-014
rhumerus 4.48823 15.8669 -83.119
rradius 67.344
rwrist -0.311738
rhand -25.7538 -34.4456
rfingers 7.12502
rthumb 0.783512 -64.4239
lclavicle -1.90088e-015 -2.94201e-014
lhumerus 6.95792 -29.1259 84.8686
lradius 62.7897
lwrist 48.2825
lhand -36.0696 15.5401
lfingers 7.12502
lthumb -9.17691 45.3204
rfemur 4.03938 -0.312731 14.9835
rtibia -3.18055e-015
rfoot -9.22229 -18.1827
rtoes 4.07618
lfemur -9.03764 -11.3377 -11.5726
ltibia 22.4272
lfoot -20.0789 8.28915
ltoes -16.7499
232
root -9.52553 18.0073 -16.4123 294.448 88.8996 289.461
lowerback 3.2253 0.385084 1.65403
upperback -2.51539 0.7171 2.05269
thorax -4.41248 0.353576 1.14122
lowerneck -28.0591 -2.58939 -4.39122
upperneck 28.9223 -2.05358 1.54435
head 14.7941 -1.05503 0.978095
rclavicle 5.70264e-015 -1.59028e-015
rhumerus 5.53005 15.9015 -82.767
rradius 66.2135
rwrist -0.0721414
rhand -24.4221 -34.2265
rfingers 7.12502
rthumb 2.06967 -64.1962
lclavicle 5.70264e-015 -1.59028e-015
lhumerus 8.16079 -29.4325 84.0462
lradius 61.7175
lwrist 48.1235
lhand -35.7675 15.7504
lfingers 7.12502
lthumb -8.88545 45.5433
rfemur 3.90705 -0.204611 14.8894
rtibia -1.27222e-014
rfoot -9.23149 -18.157
rtoes 4.31504
lfemur -9.09696 -11.215 -11.6453
ltibia 22.3921
lfoot -20.0956 8.20908
ltoes -15.8137
233
root -9.52834 18.0099 -16.423 300.572 88.8974 295.5
lowerback 3.33943 0.39723 1.70404
upperback -2.44329 0.732447 1.98403
thorax -4.40078 0.357643 1.04043
lowerneck -28.0056 -2.47753 -4.15548
upperneck 28.9315 -1.9434 1.38305
head 14.7772 -1.00556 0.894833
rclavicle 9.44227e-016 -4.77083e-015
rhumerus 6.66112 15.9955 -82.4196
rradius 64.9133
rwrist 0.0524097
rhand -23.7243 -34.3155
rfingers 7.12502
rthumb 2.74361 -64.2776
lclavicle 9.44227e-016 -4.77083e-015
lhumerus 9.34508 -29.6115 83.3041
lradius 60.705
lwrist 48.0081
lhand -35.4438 15.9649
lfingers 7.12502
lthumb -8.57304 45.7709
rfemur 3.78009 -0.110375 14.7986
rtibia -3.18055e-015
rfoot -9.26028 -18.1335
rtoes 4.5753
lfemur -9.14468 -11.1692 -11.7168
ltibia 22.3443
lfoot -20.134 8.19349
ltoes -14.8765
234
root -9.5305 18.0129 -16.4328 305.618 88.8784 300.445
lowerback 3.46994 0.408139 1.74198
upperback -2.38896 0.748168 1.9388
thorax -4.41733 0.362817 0.97048
lowerneck -27.9523 -2.38683 -3.98359
upperneck 28.9467 -1.83998 1.23904
head 14.765 -0.963593 0.828088
rclavicle -1.49089e-016 5.56597e-015
rhumerus 7.8045 16.1239 -82.0668
rradius 63.5719
rwrist 0.0744807
rhand -23.6148 -34.594
rfingers 7.12502
rthumb 2.84935 -64.5547
lclavicle -1.49089e-016 5.56597e-015
lhumerus 10.478 -29.6493 82.7037
lradius 59.7577
lwrist 47.8749
lhand -35.1458 16.1662
lfingers 7.12502
lthumb -8.28553 45.9837
rfemur 3.638 -0.0307569 14.7278
rtibia 7.95139e-015
rfoot -9.27964 -18.1253
rtoes 4.71772
lfemur -9.21177 -11.1805 -11.769
ltibia 22.2999
lfoot -20.1797 8.23997
ltoes -14.1608
235
root -9.53227 18.0165 -16.4413 309.374 88.8429 304.067
lowerback 3.61338 0.423674 1.77167
upperback -2.3593 0.772612 1.92003
thorax -4.46743 0.373139 0.931716
lowerneck -27.9056 -2.33297 -3.90238
upperneck 28.957 -1.75972 1.12817
head 14.755 -0.936874 0.785407
rclavicle 6.53505e-015 -4.77083e-015
rhumerus 8.90732 16.245 -81.7155
rradius 62.3004
rwrist 0.0514273
rhand -23.8383 -34.8752
rfingers 7.12502
rthumb 2.63355 -64.8387
lclavicle 6.53505e-015 -4.77083e-015
lhumerus 11.5608 -29.561 82.2553
lradius 58.8452
lwrist 47.6797
lhand -34.9036 16.3344
lfingers 7.12502
lthumb -8.05171 46.161
rfemur 3.46219 0.0341219 14.6874
rtibia -3.18055e-015
rfoot -9.26887 -18.1373
rtoes 4.67836
lfemur -9.32908 -11.209 -11.788
ltibia 22.2753
lfoot -20.2151 8.32078
ltoes -13.8072
236
root -9.53391 18.0208 -16.4484 311.889 88.7947 306.407
lowerback 3.73866 0.442777 1.81298
upperback -2.3397 0.803117 1.91208
thorax -4.51771 0.386437 0.8972
lowerneck -27.8763 -2.31574 -3.88983
upperneck 28.9496 -1.71481 1.05555
head 14.7433 -0.927423 0.76255
rclavicle 3.3048e-015 1.66979e-014
rhumerus 9.97327 16.3234 -81.389
rradius 61.1461
rwrist 0.0498419
rhand -24.0754 -34.9699
rfingers 7.12502
rthumb 2.40453 -64.9361
lclavicle 3.3048e-015 1.66979e-014
lhumerus 12.6402 -29.3812 81.8989
lradius 57.9093
lwrist 47.4081
lhand -34.7101 16.4526
lfingers 7.12502
lthumb -7.86498 46.2863
rfemur 3.24468 0.0851197 14.6782
rtibia -6.36111e-015
rfoot -9.22301 -18.1649
rtoes 4.48882
lfemur -9.51313 -11.2164 -11.7689
ltibia 22.2805
lfoot -20.2285 8.40202
ltoes -13.8408
